<?xml version="1.0" encoding="UTF-8"?>
<svg id="Logo" xmlns="http://www.w3.org/2000/svg" viewBox="0 0 303.83 95.56">
  <defs>
    <style>
      .cls-1 {
        fill: #fff;
      }
    </style>
  </defs>
  <g id="Day">
    <g id="Outlines">
      <path class="cls-1" d="M19.49,46.76c-2.23,0-4.42,.47-6.53,1.39-2.14,.92-4.18,2.18-6.15,3.83v-18.91H.45v52.25H6.81v-28.02c1.74-1.34,3.55-2.4,5.43-3.26,1.9-.85,3.71-1.27,5.45-1.27s3.08,.21,4.13,.7c1.08,.47,1.88,1.15,2.44,2.09,.54,.85,.89,2.04,1.1,3.55,.19,1.5,.31,3.12,.31,4.86v21.37h6.36v-24.38c0-4.58-1.08-8.1-3.22-10.54-2.11-2.44-5.24-3.66-9.32-3.66Z"/>
      <path class="cls-1" d="M66.89,75.81c-1.69,1.32-3.52,2.4-5.47,3.24s-3.73,1.27-5.4,1.27c-1.83,0-3.26-.21-4.2-.68-.99-.42-1.76-1.15-2.4-2.14-.59-.96-.94-2.11-1.15-3.48-.19-1.36-.26-2.98-.26-4.88v-21.35h-6.36v24.35c0,4.65,1.1,8.17,3.31,10.59,2.23,2.42,5.33,3.62,9.3,3.62,2.37,0,4.53-.47,6.51-1.34,1.97-.89,4.04-2.18,6.15-3.85v4.16h6.36V47.79h-6.36v28.02h-.02Z"/>
      <path class="cls-1" d="M125.86,46.76c-2.42,0-4.7,.47-6.81,1.43-2.14,.96-4.49,2.51-7.05,4.65-.89-1.9-2.21-3.38-4.02-4.44-1.78-1.08-3.97-1.62-6.55-1.62-2.23,0-4.32,.47-6.32,1.39-1.95,.92-3.95,2.18-5.94,3.83v-4.16h-6.36v37.51h6.36v-28.04c1.74-1.32,3.48-2.4,5.24-3.26,1.76-.85,3.48-1.27,5.24-1.27s3.22,.23,4.18,.7c.99,.49,1.74,1.22,2.23,2.18,.47,.89,.8,2.09,.94,3.57s.21,3.05,.21,4.72v21.37h6.36v-24.03c0-.66-.02-1.34-.07-2.02s-.09-1.27-.16-1.78c1.78-1.36,3.57-2.49,5.35-3.38,1.76-.87,3.55-1.32,5.33-1.32s3.24,.26,4.2,.75,1.69,1.22,2.23,2.18c.49,.89,.8,2.09,.94,3.59s.23,3.05,.23,4.67v21.37h6.34v-24.4c0-4.49-1.01-7.98-2.96-10.47-1.95-2.49-4.98-3.73-9.16-3.73Z"/>
      <path class="cls-1" d="M175.36,49.79c-1.43-1.06-3.15-1.78-5.12-2.25-1.97-.42-4.3-.63-6.98-.63-2.28,0-4.6,.19-6.95,.59s-4.13,.78-5.38,1.1v6.41h.35c2.18-.82,4.3-1.46,6.36-1.9,2.07-.42,3.9-.66,5.59-.66,1.36,0,2.7,.09,3.97,.26,1.24,.19,2.35,.52,3.24,1.03,.96,.54,1.69,1.29,2.21,2.21,.52,.96,.75,2.11,.75,3.57v.96c-3.71,.16-7.16,.45-10.38,.8-3.24,.35-5.99,1.06-8.29,2.07-2.3,1.01-4.04,2.37-5.28,4.13-1.22,1.76-1.86,4.06-1.86,6.9,0,3.48,1.2,6.32,3.57,8.57,2.37,2.25,5.26,3.36,8.67,3.36,1.88,0,3.48-.16,4.84-.52,1.39-.35,2.61-.78,3.66-1.29,.92-.4,1.86-.94,2.79-1.62,.99-.68,1.74-1.22,2.3-1.6v4.02h6.34v-25.46c0-2.42-.4-4.44-1.13-6.08-.8-1.6-1.88-2.96-3.29-3.97Zm-1.97,26.28c-1.57,1.2-3.29,2.23-5.14,3.1-1.86,.85-3.9,1.27-6.15,1.27-2.68,0-4.7-.54-5.99-1.62-1.29-1.1-1.95-2.7-1.95-4.86,0-1.9,.56-3.41,1.69-4.49s2.61-1.9,4.44-2.4c1.53-.42,3.62-.75,6.22-.99,2.65-.23,4.93-.4,6.86-.49v10.47h.02Z"/>
      <path class="cls-1" d="M208.38,46.76c-2.23,0-4.42,.47-6.55,1.39-2.09,.92-4.18,2.18-6.15,3.83v-4.16h-6.36v37.51h6.36v-28.02c1.76-1.32,3.57-2.4,5.47-3.26,1.88-.85,3.71-1.27,5.45-1.27s3.08,.21,4.11,.7c1.08,.47,1.88,1.15,2.44,2.09,.54,.85,.92,2.04,1.13,3.55,.21,1.5,.31,3.12,.31,4.86v21.37h6.36v-24.38c0-4.58-1.08-8.1-3.22-10.54-2.14-2.44-5.24-3.66-9.35-3.66Z"/>
      <rect class="cls-1" x="230.51" y="47.79" width="6.36" height="37.51"/>
      <path class="cls-1" d="M252.79,47.81v-10.8h-6.34v36.05c0,4.53,.99,7.84,3.01,9.91s4.96,3.1,8.81,3.1c1.1,0,2.35-.12,3.78-.31,1.41-.21,2.72-.47,3.9-.78v-5.68h-.33c-.49,.21-1.29,.45-2.44,.75-1.13,.31-2.21,.45-3.24,.45-1.78,0-3.1-.21-3.99-.61-.87-.4-1.55-1.06-2.04-1.97-.54-.96-.85-2-.94-3.1-.09-1.1-.14-2.65-.14-4.63v-17.07h16.36l12.81,30.37-5.26,12.07h6.83l20.27-47.77h-6.67l-11.72,27.81-11.6-27.81"/>
      <path class="cls-1" d="M233.21,32.71c-2.33,0-4.23,1.88-4.23,4.18s1.9,4.18,4.23,4.18,4.2-1.88,4.2-4.18-1.88-4.18-4.2-4.18Z"/>
      <rect class="cls-1" x="89.76" y="11.46" width="5.26" height="30.44"/>
      <path class="cls-1" d="M42.27,41.85l.05-20.67c0-1.95-.28-3.62-.89-4.93-.61-1.34-1.48-2.42-2.63-3.26-1.17-.87-2.54-1.46-4.16-1.83s-3.48-.54-5.64-.54c-1.86,0-3.73,.16-5.64,.47-1.93,.33-3.36,.63-4.37,.89v5.21h.28c1.76-.68,3.5-1.17,5.17-1.53s3.17-.52,4.53-.52c1.1,0,2.18,.07,3.19,.21,1.03,.16,1.9,.45,2.65,.87,.75,.45,1.34,1.03,1.76,1.81s.61,1.74,.61,2.89v.8c-3.03,.14-5.85,.35-8.45,.63-2.63,.28-4.86,.85-6.74,1.64-1.86,.82-3.26,1.93-4.27,3.36-1.01,1.43-1.5,3.29-1.5,5.59,0,2.82,.94,5.14,2.87,6.98,1.93,1.81,4.25,2.72,7.02,2.75,1.5,0,2.79-.14,3.92-.42s2.11-.61,2.98-1.03c.73-.33,1.48-.78,2.28-1.32,.78-.54,1.41-.99,1.86-1.29l-.02,3.24h5.14Zm-9.32-4.98c-1.5,.68-3.17,1.03-4.98,1.03-2.18,0-3.8-.45-4.86-1.34s-1.6-2.18-1.6-3.95c.02-1.55,.47-2.75,1.39-3.64,.92-.87,2.11-1.53,3.59-1.93,1.24-.33,2.94-.61,5.07-.78,2.14-.19,3.99-.31,5.57-.4l-.02,8.48c-1.24,.99-2.65,1.81-4.16,2.51Z"/>
      <path class="cls-1" d="M51.76,20.27c1.39-1.1,2.82-2.02,4.27-2.7,1.5-.7,3.03-1.03,4.63-1.03,.99,0,1.86,.05,2.56,.14,.75,.09,1.5,.21,2.25,.4h.28l.02-5.28c-.82-.12-1.41-.21-1.81-.26-.4-.05-1.06-.07-1.95-.07-1.62,0-3.22,.33-4.81,1.01-1.55,.68-3.38,1.83-5.43,3.48v-4.51h-5.14l-.12,30.44,5.17,.02,.07-21.63Z"/>
      <path class="cls-1" d="M83.94,37.08h-.28c-.4,.16-1.06,.35-1.97,.61-.92,.23-1.81,.35-2.63,.35-1.46,0-2.54-.16-3.24-.52-.7-.33-1.27-.87-1.64-1.6-.45-.8-.7-1.64-.78-2.54-.07-.89-.09-2.14-.09-3.76l.05-13.88,10.66,.02v-4.32l-10.66-.02,.02-8.74-5.17-.02V11.44l-.02,4.3-.05,16.2c0,3.69,.82,6.36,2.42,8.06,1.64,1.67,4.02,2.51,7.16,2.51,.89,0,1.93-.07,3.08-.23s2.21-.38,3.17-.61l-.02-4.58Z"/>
      <path class="cls-1" d="M110.52,42.79c4.02,0,7.19-.87,9.51-2.65,2.33-1.76,3.48-4.04,3.5-6.83,0-2.21-.63-3.99-1.95-5.33-1.29-1.34-3.15-2.28-5.54-2.84-.8-.16-1.78-.38-2.96-.59s-2.25-.45-3.19-.68c-1.71-.4-2.96-.92-3.73-1.55-.8-.63-1.2-1.57-1.17-2.84,0-1.43,.66-2.49,1.97-3.19s2.89-1.06,4.77-1.06,3.66,.33,5.54,1.01c1.9,.66,3.48,1.48,4.81,2.44h.26v-5.5c-1.24-.63-2.79-1.2-4.67-1.62-1.88-.45-3.73-.68-5.57-.68-1.95,0-3.73,.23-5.31,.73-1.6,.49-2.89,1.17-3.92,2.02-1.08,.87-1.88,1.86-2.4,2.96s-.8,2.3-.8,3.55c0,2,.56,3.69,1.69,5.05,1.13,1.39,3.03,2.42,5.73,3.12,.96,.26,2.04,.52,3.22,.7,1.2,.23,2.14,.42,2.87,.59,1.97,.42,3.31,.96,4.02,1.6,.68,.61,1.03,1.53,1.03,2.72,0,1.57-.66,2.72-1.93,3.43-1.29,.73-3.08,1.1-5.35,1.08-1.83,0-3.73-.35-5.73-1.08s-3.8-1.69-5.43-2.91h-.26l-.02,5.75c1.29,.66,2.87,1.24,4.77,1.78,1.88,.54,3.97,.82,6.25,.82Z"/>
      <path class="cls-1" d="M133.07,2.91l-5.17-.02-.02,8.76-.02,4.3-.02,16.2c-.02,3.69,.8,6.36,2.42,8.06,1.62,1.67,3.99,2.51,7.14,2.51,.89,0,1.93-.07,3.08-.23,1.15-.16,2.21-.35,3.17-.61v-4.6h-.28c-.42,.16-1.06,.35-1.97,.61-.92,.23-1.78,.35-2.63,.35-1.46,0-2.54-.16-3.22-.52-.7-.33-1.24-.87-1.64-1.6-.45-.8-.7-1.62-.78-2.51-.07-.92-.12-2.16-.12-3.76l.02-13.88,10.69,.05v-4.32l-10.66-.02,.02-8.76Z"/>
      <path class="cls-1" d="M158.83,42.91c4.04,0,7.19-.89,9.51-2.65,2.33-1.78,3.5-4.06,3.5-6.83,0-2.21-.66-4.02-1.95-5.33-1.29-1.34-3.15-2.28-5.54-2.82-.8-.19-1.76-.4-2.96-.61-1.17-.23-2.25-.42-3.22-.66-1.71-.42-2.96-.94-3.71-1.57-.78-.63-1.17-1.57-1.17-2.84,0-1.41,.66-2.47,1.97-3.19,1.29-.7,2.89-1.06,4.77-1.06s3.66,.33,5.54,1.01c1.88,.66,3.5,1.48,4.81,2.44h.26l.02-5.5c-1.24-.63-2.79-1.17-4.67-1.62-1.88-.47-3.73-.68-5.57-.68-1.95,0-3.73,.26-5.33,.73-1.6,.49-2.89,1.17-3.92,2.02-1.06,.85-1.86,1.86-2.37,2.96-.54,1.1-.8,2.28-.8,3.55,0,2,.54,3.69,1.69,5.05,1.1,1.39,3.03,2.42,5.71,3.15,.96,.26,2.04,.49,3.22,.73,1.2,.21,2.14,.42,2.87,.59,1.97,.42,3.33,.96,4.02,1.57s1.06,1.55,1.03,2.75c0,1.57-.66,2.7-1.93,3.43-1.29,.73-3.08,1.08-5.35,1.06-1.83,0-3.73-.35-5.73-1.08-2-.73-3.8-1.69-5.43-2.91h-.28l-.02,5.75c1.29,.63,2.87,1.22,4.77,1.76,1.93,.54,4.02,.82,6.27,.82Z"/>
      <path class="cls-1" d="M92.74,6.88c1.93,0,3.48-1.53,3.48-3.43S94.69,0,92.77,0s-3.45,1.53-3.45,3.43c-.02,1.93,1.53,3.45,3.43,3.45Z"/>
      <path class="cls-1" d="M201.88,42.91c2.79,0,5.03-.94,6.69-2.79,1.64-1.88,2.49-4.42,2.49-7.63s-.85-5.78-2.49-7.66c-1.67-1.86-3.9-2.79-6.69-2.79s-5.07,.94-6.76,2.79c-1.64,1.88-2.47,4.44-2.47,7.66s.82,5.75,2.47,7.63c1.69,1.86,3.95,2.79,6.76,2.79Zm-4.23-16.13c.99-1.24,2.4-1.86,4.25-1.86s3.19,.63,4.2,1.86c1.01,1.24,1.53,3.15,1.53,5.71s-.52,4.42-1.53,5.66c-1.03,1.27-2.42,1.9-4.2,1.9s-3.24-.63-4.23-1.93c-1.01-1.29-1.53-3.15-1.53-5.64-.02-2.56,.47-4.49,1.5-5.71Z"/>
      <path class="cls-1" d="M226.28,22.57c-1.06,0-2.09,.21-3.1,.66-1.03,.45-2.21,1.2-3.55,2.25v-2.94h-3.36v19.8h3.36v-14.07c.92-.73,1.81-1.29,2.77-1.76,.96-.45,1.97-.68,3.01-.68,.63,0,1.2,.02,1.67,.07,.49,.05,.96,.14,1.46,.26h.16v-3.43c-.52-.09-.89-.16-1.17-.19-.26,.05-.66,.02-1.24,.02Z"/>
      <path class="cls-1" d="M190.61,22.64h-5.99v-.66c0-1.64,.33-2.77,.96-3.41,.66-.61,1.69-.94,3.1-.94,.42,0,.96,.05,1.53,.16,.59,.09,1.06,.21,1.43,.31h.19v-3.01c-.49-.09-1.06-.16-1.64-.23-.56-.05-1.24-.09-2-.09-2.21,0-3.88,.61-5.05,1.86-1.15,1.22-1.74,3.03-1.74,5.35v20.22h3.31V25.41h5.89v-2.77h0Z"/>
    </g>
  </g>
</svg>